<svg id="visual" viewBox="0 0 900 600" width="900" height="600" xmlns="http://www.w3.org/2000/svg" xmlns:xlink="http://www.w3.org/1999/xlink" version="1.1"><path d="M0 67L37.5 69C75 71 150 75 225 75C300 75 375 71 450 66C525 61 600 55 675 52C750 49 825 49 862.5 49L900 49L900 0L862.5 0C825 0 750 0 675 0C600 0 525 0 450 0C375 0 300 0 225 0C150 0 75 0 37.5 0L0 0Z" fill="#974bce"></path><path d="M0 277L37.5 277C75 277 150 277 225 262C300 247 375 217 450 208C525 199 600 211 675 222C750 233 825 243 862.5 248L900 253L900 47L862.5 47C825 47 750 47 675 50C600 53 525 59 450 64C375 69 300 73 225 73C150 73 75 69 37.5 67L0 65Z" fill="#8530c3"></path><path d="M0 385L37.5 379C75 373 150 361 225 342C300 323 375 297 450 289C525 281 600 291 675 303C750 315 825 329 862.5 336L900 343L900 251L862.5 246C825 241 750 231 675 220C600 209 525 197 450 206C375 215 300 245 225 260C150 275 75 275 37.5 275L0 275Z" fill="#7209b7"></path><path d="M0 523L37.5 518C75 513 150 503 225 495C300 487 375 481 450 484C525 487 600 499 675 503C750 507 825 503 862.5 501L900 499L900 341L862.5 334C825 327 750 313 675 301C600 289 525 279 450 287C375 295 300 321 225 340C150 359 75 371 37.5 377L0 383Z" fill="#620b9e"></path><path d="M0 601L37.5 601C75 601 150 601 225 601C300 601 375 601 450 601C525 601 600 601 675 601C750 601 825 601 862.5 601L900 601L900 497L862.5 499C825 501 750 505 675 501C600 497 525 485 450 482C375 479 300 485 225 493C150 501 75 511 37.5 516L0 521Z" fill="#530b86"></path></svg>